#N canvas 145 190 1200 854 10;
#X obj 832 222 adc~;
#X obj 57 106 loadbang;
#X obj 739 85 switch~;
#X obj 739 59 r \$0-switch;
#X obj 57 152 print \$0-freq;
#X obj 717 60 tgl 15 0 empty empty empty 17 7 0 10 -262144 -1 -1 0
1;
#X obj 833 722 dac~;
#X obj 93 404 r \$0-control3 label:notUsed range: 0 1 2;
#X obj 93 428 r \$0-control4 label:notUsed range: 0 1 2;
#X obj 92 451 r \$0-control5 label:notUsed range: 0 1 2;
#X obj 91 348 r \$0-control1 label:notUsed range: 0 0.5 1;
#X obj 91 374 r \$0-control2 label:notUsed range: 0 2 150;
#X msg 57 129 Test to loop through Audio.;
#X msg 57 80 pluginName: StereoInOutLoop;
#X msg 57 55 pluginURI: http://mywebsite/simpleStereoThrough.html;
#X text 71 782 (c) Martin Schied 2012;
#N canvas 6 84 1388 960 license 0;
#X text 298 187 Example patch for Puredata (pd) to LV2 Plugin bridge.
Copyright 2012 Martin Schied <m@unknown-error.com> \, \; \; Permission
to use \, copy \, modify \, and/or distribute this software for any
purpose with or without fee is hereby granted \, provided that the
above copyright notice and this permission notice appear in all copies.
\; \; THIS SOFTWARE IS PROVIDED "AS IS" AND THE AUTHOR DISCLAIMS ALL
WARRANTIES WITH REGARD TO THIS SOFTWARE INCLUDING ALL IMPLIED WARRANTIES
OF MERCHANTABILITY AND FITNESS. IN NO EVENT SHALL THE AUTHOR BE LIABLE
FOR ANY SPECIAL \, DIRECT \, INDIRECT \, OR CONSEQUENTIAL DAMAGES OR
ANY DAMAGES WHATSOEVER RESULTING FROM LOSS OF USE \, DATA OR PROFITS
\, WHETHER IN AN ACTION OF CONTRACT \, NEGLIGENCE OR OTHER TORTIOUS
ACTION \, ARISING OUT OF OR IN CONNECTION WITH THE USE OR PERFORMANCE
OF THIS SOFTWARE.;
#X restore 74 801 pd license;
#X connect 0 0 6 0;
#X connect 0 1 6 1;
#X connect 1 0 12 0;
#X connect 3 0 2 0;
#X connect 5 0 2 0;
#X connect 12 0 4 0;
