#N canvas 130 190 1200 854 10;
#X obj 59 372 adc~;
#X obj 57 211 loadbang;
#X obj 605 222 osc~ 440;
#X obj 676 482 switch~;
#X obj 676 456 r \$0-switch;
#X obj 57 324 print \$0-freq;
#X obj 604 314 *~;
#X obj 604 186 +~;
#X obj 655 122 osc~ 0.5;
#X obj 513 151 lop~ 40;
#X obj 655 152 *~;
#X obj 513 74 r \$0-freq;
#X obj 104 487 s \$0-freq;
#X obj 107 605 s \$0-smooth;
#X obj 108 658 s \$0-vfreq;
#X obj 108 723 s \$0-vdepth;
#X obj 655 76 r \$0-vfreq;
#X obj 721 127 r \$0-vdepth;
#X obj 537 230 *~ 2;
#X obj 536 278 *~;
#X obj 619 247 r \$0-amp;
#X obj 536 254 osc~ 440;
#X obj 667 270 r \$0-smooth;
#X floatatom 62 466 5 0 0 0 - - -;
#X floatatom 66 523 5 0 0 0 - - -;
#X floatatom 68 582 5 0 0 0 - - -;
#X floatatom 67 634 5 0 0 0 - - -;
#X floatatom 68 698 5 0 0 0 - - -;
#X obj 537 344 dac~;
#X obj 105 546 s \$0-amp;
#X floatatom 625 267 5 0 0 0 - - -;
#X floatatom 721 152 5 0 0 0 - - -;
#X floatatom 666 98 5 0 0 0 - - -;
#X floatatom 513 98 5 0 0 0 - - -;
#X obj 108 698 r \$0-control5 label:Vibrato-Depth range: 0 20 100;
#X obj 108 635 r \$0-control4 label:Vibrato-Freq range: 0 20 100;
#X obj 107 583 r \$0-control3 label:Smoothing range: 0.5 20 1000;
#X obj 105 521 r \$0-control2 label:Amplitude range: 0 0.2 1;
#X text 56 36 Each plugin needs an URI to identify it to the LV2 host.
;
#X text 62 835 Better don't use the receives (\$0-control1 and so on)
again in your patches as this will prevent the parser from working
correctly.;
#X text 95 364 Input is not needed for a sine synth here - but in case
we want to mess with incoming audio - it is already there.;
#X obj 552 126 r \$0-smooth;
#X text 522 429 The switch~ is needed by design.;
#X obj 654 457 tgl 15 0 empty empty empty 17 7 0 10 -262144 -1 -1 0
1;
#X obj 619 290 lop~ 20;
#X text 54 138 a descriptive name for your patch - choose freely. Better
don't use the same name for different patches.;
#X text 54 50 it must be unique inside your plugins.;
#X text 54 90 the URI doesn't have to be a web URL - but often this
is just useful to contact the author.;
#X msg 58 71 pluginURI: http://mywebsite/sineWavePlugin.html;
#X text 523 454 turn audio on here \; during testing...;
#X text 66 228 Print something at plugin Startup - mostly useful for
debugging or to check if your plugin has been loaded. Ardour prints
this on the shell on my system \, other sequencers or other plugin
hosts might display it somewhere else.;
#X msg 57 297 I am a Synth with sines and vibrato. Apparently I work...
;
#X text 54 414 All input comes from the control inputs of your plugin
host.;
#X text 54 429 control inputs for your plugin are control1 to control5
for now.;
#X text 169 487 use your own send / receives inside the patch.;
#X obj 104 465 r \$0-control1 label:Frequency range: 0 440 20000;
#X text 63 750 If no arguments are given default names are given. Better
give names. The Three arguments behind "range" are the allowed ranges
for the control inputs (lower boundary \, default value \, upper boundary).
If no values are given the range is from 0 to 127 - I don't recall
the default value from my brain currently.;
#X text 512 34 The actual synth is very simple for demonstration...
;
#X text 25 35 1;
#X text 27 365 2;
#X text 27 415 3;
#X text 486 32 4;
#X text 502 427 5;
#X text 651 57 Vibrato;
#X text 512 55 Base Frequency.;
#X text 722 109 Vibrato Depth;
#X msg 57 170 pluginName: DemoSineSynth;
#X text 507 577 (c) Martin Schied 2012;
#N canvas 6 84 1388 960 license 0;
#X text 298 187 Example patch for Puredata (pd) to LV2 Plugin bridge.
Copyright 2012 Martin Schied <m@unknown-error.com> \, \; \; Permission
to use \, copy \, modify \, and/or distribute this software for any
purpose with or without fee is hereby granted \, provided that the
above copyright notice and this permission notice appear in all copies.
\; \; THIS SOFTWARE IS PROVIDED "AS IS" AND THE AUTHOR DISCLAIMS ALL
WARRANTIES WITH REGARD TO THIS SOFTWARE INCLUDING ALL IMPLIED WARRANTIES
OF MERCHANTABILITY AND FITNESS. IN NO EVENT SHALL THE AUTHOR BE LIABLE
FOR ANY SPECIAL \, DIRECT \, INDIRECT \, OR CONSEQUENTIAL DAMAGES OR
ANY DAMAGES WHATSOEVER RESULTING FROM LOSS OF USE \, DATA OR PROFITS
\, WHETHER IN AN ACTION OF CONTRACT \, NEGLIGENCE OR OTHER TORTIOUS
ACTION \, ARISING OUT OF OR IN CONNECTION WITH THE USE OR PERFORMANCE
OF THIS SOFTWARE.;
#X restore 510 596 pd license;
#X connect 1 0 51 0;
#X connect 2 0 6 0;
#X connect 4 0 3 0;
#X connect 6 0 28 1;
#X connect 7 0 2 0;
#X connect 7 0 18 0;
#X connect 8 0 10 0;
#X connect 9 0 7 0;
#X connect 10 0 7 1;
#X connect 11 0 33 0;
#X connect 16 0 8 0;
#X connect 16 0 32 0;
#X connect 17 0 10 1;
#X connect 17 0 31 0;
#X connect 18 0 21 0;
#X connect 19 0 28 0;
#X connect 20 0 30 0;
#X connect 20 0 44 0;
#X connect 21 0 19 0;
#X connect 22 0 44 1;
#X connect 23 0 12 0;
#X connect 24 0 29 0;
#X connect 25 0 13 0;
#X connect 26 0 14 0;
#X connect 27 0 15 0;
#X connect 33 0 9 0;
#X connect 34 0 15 0;
#X connect 35 0 14 0;
#X connect 36 0 13 0;
#X connect 37 0 29 0;
#X connect 41 0 9 1;
#X connect 43 0 3 0;
#X connect 44 0 6 1;
#X connect 44 0 19 1;
#X connect 51 0 5 0;
#X connect 55 0 12 0;
