#N canvas 124 187 1132 615 10;
#X obj 33 84 adc~;
#X obj 52 125 loadbang;
#X obj 873 39 switch~;
#X obj 873 13 r \$0-switch;
#X obj 52 172 print \$0-freq;
#X obj 368 68 s \$0-freq;
#X obj 493 165 s \$0-smooth;
#X obj 522 187 s \$0-vfreq;
#X obj 607 180 s \$0-vdepth;
#X msg 52 150 I am a Synth with sines and vibrato.;
#X floatatom 631 163 5 0 0 0 - - -;
#X obj 167 573 dac~;
#X obj 437 110 s \$0-amp;
#X text 495 295 Default range: pd-like 0..127;
#X text 496 320 Default label: controlN;
#X text 495 353 If no arguments are given after the label the numbers
should be treated as range (lower \, default \, upper);
#X obj 523 112 r \$0-control5 label:Vibrato-Depth range: 0 20 100;
#X obj 505 92 r \$0-control4 label:Vibrato-Freq range: 0 20 100;
#X obj 485 73 r \$0-control3 label:Smoothing range: 0.5 20 1000;
#X obj 437 48 r \$0-control2 label:Amplitude range: 0 0.2 1;
#X text 429 -10 please don't use the receives twice as this will disturb
the parser;
#X obj 368 29 r \$0-control1 label:Fooequency range: 0 440 20000;
#X obj 45 278 r \$0-notein;
#X obj 47 320 unpack f f f;
#X obj 47 348 mtof;
#X obj 96 351 / 127;
#X msg 19 30 pluginName: Blablasynth;
#X msg 847 62 \; pd dsp \$1;
#X obj 831 16 tgl 15 0 empty empty empty 17 7 0 10 -262144 -1 -1 0
1;
#X msg 21 5 pluginURI: http://mywebsite.com/myTemplatePlugin.html;
#X connect 1 0 9 0;
#X connect 3 0 2 0;
#X connect 9 0 4 0;
#X connect 10 0 8 0;
#X connect 16 0 8 0;
#X connect 17 0 7 0;
#X connect 18 0 6 0;
#X connect 19 0 12 0;
#X connect 21 0 5 0;
#X connect 22 0 23 0;
#X connect 23 0 24 0;
#X connect 23 1 25 0;
#X connect 28 0 2 0;
#X connect 28 0 27 0;
