#N canvas 145 190 1200 854 10;
#X obj 832 222 adc~;
#X obj 57 106 loadbang;
#X obj 739 85 switch~;
#X obj 739 59 r \$0-switch;
#X obj 57 152 print \$0-freq;
#X floatatom 48 287 5 0 0 0 - - -;
#X floatatom 52 344 5 0 0 0 - - -;
#X obj 717 60 tgl 15 0 empty empty empty 17 7 0 10 -262144 -1 -1 0
1;
#X msg 57 55 pluginURI: http://mywebsite/simpleDistortion.html;
#X msg 57 129 I am the friendly distortion Plugin;
#X obj 500 560 lop~ 0.7;
#X floatatom 562 589 5 0 0 0 - - -;
#X obj 500 655 *~;
#X obj 562 631 lop~ 2;
#X obj 562 610 sig~ 30;
#N canvas 9 84 450 300 mix 0;
#X obj 203 190 inlet~;
#X obj 146 190 inlet~;
#X obj 311 199 inlet~;
#X obj 144 274 *~;
#X obj 145 367 outlet~;
#X obj 144 234 -~;
#X text 357 199 a 0...1;
#X obj 144 315 +~;
#X text 141 166 crossfade inlet1 and inlet2 by parameter a = 0...1
;
#X text 302 272 out = a*in2 + (1-a)in1;
#X text 306 295 = a*in2 + in1 - a*in1;
#X text 307 314 = a (in2 - in1) + in1;
#X connect 0 0 5 0;
#X connect 1 0 5 1;
#X connect 1 0 7 1;
#X connect 2 0 3 1;
#X connect 3 0 7 0;
#X connect 5 0 3 0;
#X connect 7 0 4 0;
#X restore 665 718 pd mix;
#X obj 501 675 hip~ 10;
#X obj 501 491 *~ 0.5;
#X obj 699 661 r \$0-dryWet;
#X obj 500 587 +~ 1;
#X obj 455 626 *~;
#X obj 90 342 r \$0-control2 label:Drive range: 0 2 150;
#X obj 90 308 s \$0-dryWet;
#X obj 90 367 s \$0-drive;
#X obj 418 572 r \$0-drive;
#X obj 835 820 dac~;
#X obj 893 559 lop~ 0.7;
#X floatatom 955 588 5 0 0 0 - - -;
#X obj 893 654 *~;
#X obj 955 630 lop~ 2;
#X obj 955 609 sig~ 30;
#N canvas 9 84 450 300 mix 0;
#X obj 203 190 inlet~;
#X obj 146 190 inlet~;
#X obj 311 199 inlet~;
#X obj 144 274 *~;
#X obj 145 367 outlet~;
#X obj 144 234 -~;
#X text 357 199 a 0...1;
#X obj 144 315 +~;
#X text 141 166 crossfade inlet1 and inlet2 by parameter a = 0...1
;
#X text 302 272 out = a*in2 + (1-a)in1;
#X text 306 295 = a*in2 + in1 - a*in1;
#X text 307 314 = a (in2 - in1) + in1;
#X connect 0 0 5 0;
#X connect 1 0 5 1;
#X connect 1 0 7 1;
#X connect 2 0 3 1;
#X connect 3 0 7 0;
#X connect 5 0 3 0;
#X connect 7 0 4 0;
#X restore 1058 717 pd mix;
#X obj 894 674 hip~ 10;
#X obj 894 490 *~ 0.5;
#X obj 1092 660 r \$0-dryWet;
#X obj 893 586 +~ 1;
#X obj 848 625 *~;
#X obj 811 578 r \$0-drive;
#X obj 1073 397 *~ 1;
#X obj 682 399 *~ 1;
#X msg 57 80 pluginName: StereoInOutDistortionDemo;
#X obj 93 404 r \$0-control3 label:notUsed range: 0 1 2;
#X obj 93 428 r \$0-control4 label:notUsed range: 0 1 2;
#X obj 92 451 r \$0-control5 label:notUsed range: 0 1 2;
#X obj 562 559 delwrite~ \$0-delL 3000;
#X obj 500 699 vd~ \$0-delL;
#X obj 955 559 delwrite~ \$0-delR 3000;
#X obj 893 699 vd~ \$0-delR;
#X obj 90 286 r \$0-control1 label:DryWet range: 0 0.5 1;
#X text 61 772 (c) Martin Schied 2012 \, idea for distortion method
derived from a discussion with Mathieu Bouchard.;
#N canvas 6 84 1388 960 license 0;
#X text 298 187 Example patch for Puredata (pd) to LV2 Plugin bridge.
Copyright 2012 Martin Schied <m@unknown-error.com> \, \; \; Permission
to use \, copy \, modify \, and/or distribute this software for any
purpose with or without fee is hereby granted \, provided that the
above copyright notice and this permission notice appear in all copies.
\; \; THIS SOFTWARE IS PROVIDED "AS IS" AND THE AUTHOR DISCLAIMS ALL
WARRANTIES WITH REGARD TO THIS SOFTWARE INCLUDING ALL IMPLIED WARRANTIES
OF MERCHANTABILITY AND FITNESS. IN NO EVENT SHALL THE AUTHOR BE LIABLE
FOR ANY SPECIAL \, DIRECT \, INDIRECT \, OR CONSEQUENTIAL DAMAGES OR
ANY DAMAGES WHATSOEVER RESULTING FROM LOSS OF USE \, DATA OR PROFITS
\, WHETHER IN AN ACTION OF CONTRACT \, NEGLIGENCE OR OTHER TORTIOUS
ACTION \, ARISING OUT OF OR IN CONNECTION WITH THE USE OR PERFORMANCE
OF THIS SOFTWARE.;
#X restore 62 804 pd license;
#X connect 0 0 39 0;
#X connect 0 1 38 0;
#X connect 1 0 9 0;
#X connect 3 0 2 0;
#X connect 5 0 22 0;
#X connect 6 0 23 0;
#X connect 7 0 2 0;
#X connect 9 0 4 0;
#X connect 10 0 19 0;
#X connect 11 0 14 0;
#X connect 12 0 16 0;
#X connect 13 0 12 1;
#X connect 14 0 13 0;
#X connect 15 0 25 0;
#X connect 16 0 45 0;
#X connect 17 0 10 0;
#X connect 17 0 44 0;
#X connect 18 0 15 2;
#X connect 19 0 20 0;
#X connect 20 0 12 0;
#X connect 21 0 23 0;
#X connect 24 0 20 1;
#X connect 26 0 35 0;
#X connect 27 0 30 0;
#X connect 28 0 32 0;
#X connect 29 0 28 1;
#X connect 30 0 29 0;
#X connect 31 0 25 1;
#X connect 32 0 47 0;
#X connect 33 0 26 0;
#X connect 33 0 46 0;
#X connect 34 0 31 2;
#X connect 35 0 36 0;
#X connect 36 0 28 0;
#X connect 37 0 36 1;
#X connect 38 0 33 0;
#X connect 38 0 31 1;
#X connect 39 0 17 0;
#X connect 39 0 15 1;
#X connect 45 0 15 0;
#X connect 47 0 31 0;
#X connect 48 0 22 0;
